<svg height="200px" width="200px" version="1.1" id="Layer_1" xmlns="http://www.w3.org/2000/svg" xmlns:xlink="http://www.w3.org/1999/xlink" viewBox="0 0 512 512" xml:space="preserve" fill="#000000"><g id="SVGRepo_bgCarrier" stroke-width="0"></g><g id="SVGRepo_tracerCarrier" stroke-linecap="round" stroke-linejoin="round"></g><g id="SVGRepo_iconCarrier"> <path style="fill:#4FC0E8;" d="M0,256.006C0,397.402,114.606,512.004,255.996,512C397.394,512.004,512,397.402,512,256.006 C512.009,114.61,397.394,0,255.996,0C114.606,0,0,114.614,0,256.006z"></path> <path style="fill:#3DAED9;" d="M509.598,290.684c-0.141-0.132-0.256-0.288-0.412-0.412c-0.34-0.429-0.708-0.797-1.137-1.137 c-0.34-0.43-159.951-160.041-160.38-160.38c-0.34-0.43-0.709-0.798-1.139-1.138c-1.297-1.637-3.216-2.754-5.47-2.754 c-14.767,0-27.524,6.706-35.121,17.084c-0.302-0.329-0.654-0.612-0.967-0.931c-0.361-0.397-0.762-0.754-1.137-1.137 c-0.361-0.397-0.763-0.755-1.139-1.138c-7.742-8.532-19.333-13.876-32.521-13.876c-3.918,0-7.089,3.173-7.089,7.089 c0,2.253,1.117,4.173,2.754,5.471c0.34,0.429,0.708,0.798,1.137,1.137c0.34,0.429,31.229,31.365,31.55,31.647v18.452H117.408 c-10.058,0-17.355,6.908-17.355,16.423v99.82c0,5.477,2.306,10.352,5.887,13.731c0.358,0.404,0.745,0.766,1.135,1.135 c0.358,0.405,0.747,0.768,1.137,1.137c0.358,0.405,187.287,187.309,187.678,187.678c0.082,0.093,0.175,0.171,0.259,0.259 C407.196,491.353,494.45,402.489,509.598,290.684z"></path> <path style="fill:#F4F6F9;" d="M394.592,188.659h-81.884v-24.097c0-14.311,12.453-25.522,28.354-25.522 c3.918,0,7.088-3.174,7.088-7.088c0-3.914-3.17-7.088-7.088-7.088c-14.962,0-27.885,6.867-35.442,17.481 c-7.557-10.612-20.481-17.481-35.442-17.481c-3.918,0-7.088,3.174-7.088,7.088c0,3.914,3.17,7.088,7.088,7.088 c15.901,0,28.354,11.211,28.354,25.522v24.097H117.408c-10.059,0-17.355,6.909-17.355,16.423v99.82 c0,10.165,7.788,18.437,17.355,18.437H298.53v21.643c0,14.903-13.249,27.977-28.354,27.977c-3.918,0-7.088,3.174-7.088,7.088 c0,3.915,3.17,7.088,7.088,7.088c14.602,0,27.75-7.757,35.442-19.243c7.693,11.486,20.841,19.243,35.442,19.243 c3.918,0,7.088-3.174,7.088-7.088c0-3.915-3.17-7.088-7.088-7.088c-15.104,0-28.354-13.073-28.354-27.977V323.34h81.884 c9.567,0,17.355-8.272,17.355-18.437v-99.82C411.947,195.568,404.65,188.659,394.592,188.659z M114.23,304.902v-99.82 c0-0.841,0-2.246,3.178-2.246H298.53v106.327H117.408C115.906,309.164,114.23,307.343,114.23,304.902z M397.77,304.902 c0,2.441-1.675,4.26-3.178,4.26h-81.884V202.835h81.884c3.178,0,3.178,1.405,3.178,2.246V304.902z"></path> </g></svg>